Coordinates
version=1
nRows=24
nColumns=24
inDegrees=yes

Units are S.I. units (second, meters, Newtons, ...)
Angles are in degrees.

endheader
time	pelvis_tilt	pelvis_list	pelvis_rotation	pelvis_tx	pelvis_ty	pelvis_tz	hip_flexion_r	hip_adduction_r	hip_rotation_r	knee_angle_r	ankle_angle_r	subtalar_angle_r	mtp_angle_r	hip_flexion_l	hip_adduction_l	hip_rotation_l	knee_angle_l	ankle_angle_l	subtalar_angle_l	mtp_angle_l	lumbar_extension	lumbar_bending	lumbar_rotation
      0.44200000	     -0.73066558	      5.21430320	     -0.83669224	     -0.87066071	      0.99799061	      0.31678106	     25.49793152	     -3.10653129	     -6.65715832	     -1.52519691	     -0.71309944	    -11.32967435	     -0.84060522	    -10.82222809	      6.08051171	    -13.43719628	     -6.91993136	     11.13035731	     -1.02832584	     -0.00935110	    -11.98997038	     -6.75777460	     -0.90040269
      0.44616667	     -0.42608947	      5.03808009	     -0.90981720	     -0.86441316	      0.99770527	      0.31703497	     25.20953956	     -2.85655961	     -6.36335289	     -2.15736668	     -0.91254238	    -11.69445967	     -1.50393202	    -11.31779350	      5.84022633	    -13.46840441	     -7.39547854	     11.32525471	     -1.01505768	     -0.05998677	    -12.28918003	     -6.45311797	     -0.91517536
      0.45033333	     -0.25717304	      4.97713531	     -0.90090881	     -0.85830420	      0.99723140	      0.31718729	     25.11245480	     -2.75546578	     -6.13793436	     -2.90860355	     -1.09850803	    -12.01377018	     -1.74811683	    -11.60471278	      5.70038550	    -13.36034543	     -7.97550862	     11.49023968	     -0.98373813	     -0.06315597	    -12.46836578	     -6.29834620	     -0.95996602
      0.45450000	      0.01470113	      4.81273635	     -0.97120560	     -0.85200395	      0.99697237	      0.31751259	     24.83655294	     -2.51075392	     -5.84267992	     -3.56371896	     -1.39381805	    -12.37378630	     -2.19741612	    -12.00308472	      5.45248883	    -13.44950317	     -8.57661937	     11.61320230	     -0.91148970	     -0.04076055	    -12.72717196	     -6.00363526	     -0.95871987
      0.45866667	      0.20946800	      4.71528241	     -0.97472348	     -0.84578200	      0.99663566	      0.31774733	     24.65677904	     -2.35819917	     -5.59010432	     -4.26815720	     -1.70452236	    -12.80538759	     -2.42855984	    -12.28408333	      5.26332491	    -13.38312884	     -9.23458934	     11.66756325	     -0.91823920	     -0.00634661	    -12.92531466	     -5.80662257	     -0.98180156
      0.46283333	      0.46493195	      4.56688077	     -1.06059802	     -0.83943082	      0.99641863	      0.31814102	     24.38313143	     -2.11792063	     -5.28908601	     -4.92861791	     -2.06836324	    -13.22278065	     -2.81454071	    -12.62141424	      5.02478610	    -13.48304904	     -9.92591814	     11.75347045	     -0.83250195	      0.10353300	    -13.15662094	     -5.53468781	     -0.95645174
      0.46700000	      0.62935973	      4.47961503	     -1.06383289	     -0.83318314	      0.99613984	      0.31841831	     24.20221773	     -1.96901901	     -5.02624919	     -5.58608819	     -2.48799843	    -13.71805281	     -3.00018209	    -12.80901161	      4.83569502	    -13.41064822	    -10.69352716	     11.71030775	     -0.90462221	      0.18519235	    -13.31396310	     -5.34139880	     -0.96603080
      0.47116667	      0.82209959	      4.36877484	     -1.09551980	     -0.82683128	      0.99595268	      0.31873589	     23.96854678	     -1.78596949	     -4.77850162	     -6.20771630	     -2.97368025	    -14.26636911	     -3.14776240	    -13.01542159	      4.62279552	    -13.39424130	    -11.49079260	     11.65647208	     -0.93762533	      0.28107031	    -13.48418884	     -5.11427046	     -0.96541396
      0.47533333	      1.00845549	      4.24819775	     -1.13980500	     -0.82048418	      0.99581066	      0.31913248	     23.71849980	     -1.58265228	     -4.50584502	     -6.77788990	     -3.50926441	    -14.82596618	     -3.28651128	    -13.17447452	      4.38913882	    -13.40826749	    -12.36818845	     11.54237917	     -0.97670047	      0.40347560	    -13.65558910	     -4.88683694	     -0.94537663
      0.47950000	      1.18076609	      4.13277093	     -1.19257849	     -0.81413394	      0.99569912	      0.31956544	     23.46973613	     -1.38014708	     -4.23004525	     -7.31204842	     -4.09528484	    -15.41125868	     -3.41995035	    -13.27862258	      4.15423821	    -13.43813651	    -13.31872066	     11.38727933	     -1.03559870	      0.55811283	    -13.80466000	     -4.66546551	     -0.90707044
      0.48366667	      1.42764284	      3.97057640	     -1.35214809	     -0.80771542	      0.99571675	      0.32025902	     23.11922434	     -1.08340886	     -3.86532895	     -7.78564697	     -4.74981063	    -16.02355858	     -3.69746062	    -13.44368702	      3.86799759	    -13.67436599	    -14.32176841	     11.24080463	     -0.94311935	      0.99045547	    -14.03374074	     -4.41637488	     -0.80152620
      0.48783333	      1.51572571	      3.90033447	     -1.34709583	     -0.80142720	      0.99561694	      0.32054970	     22.95319725	     -0.96214757	     -3.68822568	     -8.29467902	     -5.37652092	    -16.55238289	     -3.77516807	    -13.36154240	      3.67092015	    -13.55430609	    -15.42945561	     10.98259738	     -1.20915343	      1.11868733	    -14.10794082	     -4.23848989	     -0.73074537
      0.49200000	      1.62068234	      3.79209925	     -1.39270648	     -0.79508136	      0.99559309	      0.32096156	     22.74180815	     -0.78060167	     -3.47382190	     -8.73959651	     -6.07951022	    -17.15265783	     -3.85422780	    -13.26436557	      3.42646675	    -13.55024283	    -16.60768864	     10.65058774	     -1.41721476	      1.27202919	    -14.18191565	     -4.01085682	     -0.69013696
      0.49616667	      1.82737371	      3.61140831	     -1.63397425	     -0.78869078	      0.99566844	      0.32200106	     22.40247545	     -0.41936169	     -3.01331187	     -9.12105377	     -6.79693906	    -17.90614801	     -4.16238582	    -13.24681383	      3.07892131	    -13.95326562	    -17.88021579	     10.33758059	     -1.24959925	      2.05903286	    -14.36031760	     -3.79161813	     -0.49821703
      0.50033333	      1.88704218	      3.52019110	     -1.64634429	     -0.78238015	      0.99571360	      0.32228640	     22.23621738	     -0.28962025	     -2.90931601	     -9.56163007	     -7.43611090	    -18.38637940	     -4.23598699	    -13.00299231	      2.84314979	    -13.86793455	    -19.20627637	      9.85345135	     -1.63018081	      2.23395361	    -14.39270811	     -3.56340722	     -0.36684904
      0.50450000	      1.96821083	      3.38274996	     -1.70993774	     -0.77607755	      0.99580947	      0.32277491	     22.03141041	     -0.08425556	     -2.74892270	     -9.96597194	     -8.08409964	    -18.91642747	     -4.31544590	    -12.73252577	      2.53772522	    -13.89854739	    -20.64102032	      9.36205288	     -1.90416074	      2.44558053	    -14.45341043	     -3.32292885	     -0.27196906
      0.50866667	      1.92856766	      3.27562429	     -2.00603843	     -0.76978811	      0.99558936	      0.32399167	     22.00681410	      0.22184619	     -2.25984798	    -10.43467317	     -8.64527470	    -19.56275971	     -7.20962901	    -12.28643358	      2.23273598	    -14.32763315	    -22.17660867	      8.74597689	     -2.01946105	     11.76576294	    -14.34339500	     -3.20555104	      0.05341165
      0.51283333	      2.07263313	      3.09356091	     -2.05993433	     -0.76354311	      0.99590387	      0.32444171	     21.71100150	      0.44579769	     -2.19613792	    -10.80207593	     -9.23460001	    -19.96587220	     -7.22492982	    -11.98351820	      1.85580402	    -14.36869439	    -23.77257774	      8.16579155	     -2.31525599	     11.80485091	    -14.48908698	     -2.91880770	      0.21032992
      0.51700000	      2.15834990	      2.89955600	     -2.16210686	     -0.75729737	      0.99613138	      0.32503736	     21.48215261	      0.70535834	     -2.08341306	    -11.17817392	     -9.74864825	    -20.35725137	     -7.24553669	    -11.56850798	      1.44994859	    -14.49143704	    -25.46080218	      7.53658854	     -2.62595905	     11.86967269	    -14.55565559	     -2.63086203	      0.38372091
      0.52116667	      2.19805391	      2.69118565	     -2.29254580	     -0.75109086	      0.99628993	      0.32570361	     21.31618121	      0.98821441	     -1.96462297	    -11.58352151	    -10.20577396	    -20.72289998	     -7.27396585	    -11.05689662	      1.01535479	    -14.64800337	    -27.23841505	      6.88827745	     -2.92892023	     11.96340282	    -14.57618765	     -2.33037957	      0.60901555
      0.52533333	      2.20909692	      2.46714605	     -2.44395638	     -0.74493474	      0.99641107	      0.32643073	     21.18812653	      1.29280263	     -1.84141953	    -12.00741657	    -10.58929710	    -21.04466363	     -7.31311399	    -10.46329875	      0.54989437	    -14.82654803	    -29.09663730	      6.21177014	     -3.25327174	     12.09072144	    -14.57049934	     -2.01612325	      0.87453123
      0.52950000	      2.16723374	      2.23282307	     -2.64283965	     -0.73882811	      0.99641304	      0.32733379	     21.12815350	      1.63478289	     -1.66022673	    -12.46231027	    -10.83064291	    -21.36346031	     -7.38913749	     -9.76924316	      0.04883071	    -15.07158601	    -31.04273383	      5.55302161	     -3.55132568	     12.33291057	    -14.50211394	     -1.72141551	      1.19649358
      0.53366667	      2.14518134	      1.96294966	     -2.80027456	     -0.73273894	      0.99651605	      0.32804987	     21.02459539	      1.97219878	     -1.60082455	    -12.88226628	    -11.06341878	    -21.50643034	     -7.45286525	     -9.05985345	     -0.49149310	    -15.24818798	    -33.03424041	      4.84487511	     -3.96154916	     12.50647895	    -14.46487228	     -1.36510877	      1.50072369
      0.53783333	      2.10214743	      1.65469555	     -2.95671793	     -0.72666170	      0.99660767	      0.32874587	     20.93398732	      2.34171993	     -1.57535414	    -13.29909856	    -11.24379133	    -21.58441682	     -7.50149534	     -8.29430204	     -1.08088138	    -15.40711781	    -35.07013619	      4.13176265	     -4.42922130	     12.62325798	    -14.40995796	     -0.95262969	      1.80246105
